<?xml version="1.0" standalone="no"?>
<!DOCTYPE svg PUBLIC "-//W3C//DTD SVG 20010904//EN"
 "http://www.w3.org/TR/2001/REC-SVG-20010904/DTD/svg10.dtd">
<svg version="1.0" xmlns="http://www.w3.org/2000/svg"
 width="880.000000pt" height="622.000000pt" viewBox="0 0 880.000000 622.000000"
 preserveAspectRatio="xMidYMid meet">
<metadata>
Created by potrace 1.16, written by Peter Selinger 2001-2019
</metadata>
<g transform="translate(0.000000,622.000000) scale(0.100000,-0.100000)"
fill="#000000" stroke="none">
<path d="M3685 5787 c-128 -43 -200 -119 -235 -245 -8 -33 -8 -52 0 -78 10
-30 9 -38 -4 -53 -21 -23 -47 -179 -51 -300 -2 -84 -5 -96 -25 -113 -12 -10
-26 -18 -30 -18 -5 0 -32 20 -60 44 -28 24 -85 61 -125 81 -69 35 -78 37 -142
33 -167 -13 -284 -103 -324 -248 -9 -33 -13 -205 -14 -660 l-2 -615 -28 -130
c-38 -179 -38 -270 -1 -352 l28 -61 -22 -94 c-14 -61 -20 -108 -16 -137 8 -62
71 -244 107 -312 55 -102 209 -240 306 -274 21 -7 37 -19 36 -27 -16 -103 -33
-308 -33 -400 0 -65 -2 -118 -4 -118 -2 0 -23 8 -47 17 -33 12 -73 16 -159 15
-166 -2 -471 16 -572 34 -84 15 -90 15 -156 -5 -140 -42 -171 -100 -141 -267
5 -32 29 -96 51 -142 l41 -83 -33 -80 c-36 -87 -36 -116 1 -176 31 -49 89 -75
180 -81 90 -5 163 15 200 54 23 25 24 31 21 145 -2 67 0 119 6 119 5 0 134
-63 286 -140 295 -149 375 -179 551 -206 122 -19 209 -13 329 22 171 49 304
139 377 253 42 65 39 101 -13 158 -59 64 -112 85 -226 91 -80 4 -92 7 -87 21
4 9 20 95 36 191 16 96 36 200 44 230 8 30 31 120 51 200 20 80 40 152 44 160
4 9 46 23 106 36 l99 21 1 -186 c0 -165 5 -211 37 -406 20 -121 41 -256 47
-300 6 -44 21 -123 33 -175 26 -116 27 -291 1 -512 -24 -207 -25 -206 193
-233 70 -9 171 -25 223 -36 231 -49 393 -60 495 -34 81 21 199 80 225 112 24
31 26 82 5 123 -20 38 -43 50 -102 50 -61 0 -109 23 -203 94 -41 32 -100 70
-130 86 -34 17 -72 48 -100 81 -43 51 -45 56 -43 114 1 75 45 323 82 475 30
121 49 227 76 423 9 65 27 166 41 225 16 71 27 151 31 237 l5 130 -62 160
c-98 251 -103 265 -98 270 9 9 413 -186 430 -208 9 -12 27 -35 39 -50 36 -47
91 -69 167 -66 l67 3 518 -243 c578 -271 577 -270 654 -219 23 15 55 47 72 72
42 61 92 187 98 251 5 47 3 55 -23 83 -22 23 -264 135 -1049 487 -561 251
-1037 459 -1058 462 -36 5 -41 2 -92 -50 -30 -31 -57 -52 -59 -48 -3 4 6 19
20 32 36 33 54 72 54 113 0 66 -81 116 -187 116 -26 0 -51 8 -73 25 -19 14
-43 25 -53 25 -19 0 -19 7 -15 163 3 89 1 190 -3 224 -20 144 -84 246 -190
302 -71 39 -133 92 -174 151 -26 37 -27 42 -12 58 8 9 22 47 31 83 8 37 34
109 56 160 22 52 46 127 53 167 l12 72 60 0 c33 0 66 4 74 9 19 12 6 62 -33
119 -31 45 -33 53 -39 167 -4 66 -11 137 -17 157 -14 50 -102 128 -176 157
-73 28 -201 37 -259 18z m13 -532 c77 -56 110 -71 182 -79 30 -4 72 -9 94 -12
l38 -6 -7 -57 c-4 -31 -24 -94 -45 -141 -36 -81 -47 -113 -70 -207 -10 -41
-12 -43 -49 -43 -21 0 -61 12 -92 28 -47 23 -59 36 -94 98 -22 39 -52 87 -67
106 -16 22 -25 43 -22 55 3 11 -2 25 -11 33 -15 13 -20 11 -36 -9 -25 -31 -24
-51 6 -92 13 -19 37 -56 52 -82 71 -123 80 -134 136 -162 31 -15 74 -29 96
-32 35 -5 44 -12 65 -47 36 -61 122 -143 193 -183 82 -45 128 -100 154 -183
19 -57 21 -88 20 -254 -1 -105 -2 -191 -4 -192 -1 -1 -23 -5 -48 -9 l-45 -7
-90 79 c-81 72 -90 83 -95 124 -5 35 -1 54 17 91 53 105 53 244 2 236 -21 -3
-23 -9 -24 -73 -1 -38 -9 -87 -18 -108 l-16 -38 -44 26 c-23 14 -68 30 -99 36
-50 10 -65 20 -138 88 -92 86 -111 119 -164 281 -40 126 -63 171 -137 273 -51
69 -66 78 -88 52 -13 -16 -13 -17 48 -100 24 -33 53 -77 63 -98 19 -36 19 -38
2 -43 -124 -39 -171 -102 -192 -258 -6 -44 -13 -81 -14 -82 -7 -8 -184 86
-204 107 -12 13 -32 44 -45 69 -16 30 -30 45 -43 45 -28 0 -31 -35 -6 -83 36
-71 68 -99 176 -151 67 -32 125 -68 158 -99 29 -26 71 -63 95 -81 30 -23 52
-54 78 -108 l36 -75 -7 -137 c-6 -126 -5 -142 13 -184 24 -55 63 -78 172 -100
41 -9 95 -23 119 -31 83 -30 144 -16 194 44 30 35 43 24 28 -23 -6 -17 -10
-66 -9 -107 0 -41 -2 -85 -6 -98 -10 -30 11 -33 -388 59 -91 22 -106 22 -221
12 -129 -12 -143 -10 -299 30 -53 14 -142 33 -198 41 -57 8 -104 17 -105 18
-2 2 8 57 20 122 23 117 24 129 21 675 -1 306 1 585 6 620 10 76 49 153 95
188 40 31 141 63 196 63 53 0 125 -36 213 -106 74 -59 93 -64 141 -34 54 32
67 63 69 159 1 89 20 229 35 269 9 22 9 22 76 -22 38 -25 96 -66 131 -91z
m-268 -791 c40 -122 69 -174 126 -231 l53 -53 -32 0 c-53 0 -104 -19 -121 -44
-8 -13 -21 -48 -29 -77 -13 -53 -14 -53 -26 -29 -7 14 -51 61 -99 106 l-86 80
12 97 c15 117 34 170 74 198 29 21 76 39 92 35 5 -1 21 -38 36 -82z m619 -761
c-21 -23 -50 -68 -64 -99 -21 -48 -27 -55 -40 -44 -18 15 -19 68 -4 177 18
138 11 132 84 66 l64 -57 -40 -43z m1696 -656 c921 -413 1030 -465 1033 -486
4 -26 -29 -132 -60 -196 -11 -22 -36 -57 -56 -77 -63 -66 -55 -68 -615 193
l-495 232 31 43 c35 50 47 129 27 188 -34 103 -150 163 -255 132 -66 -20 -122
-76 -141 -143 -9 -29 -17 -53 -18 -53 -8 0 -622 292 -643 305 -27 18 -27 28 8
140 20 66 109 185 138 185 9 -1 480 -209 1046 -463z m-1249 279 c-3 -11 -11
-46 -17 -77 -16 -80 -1 -98 128 -160 56 -28 103 -55 103 -62 1 -7 16 -50 34
-97 153 -388 146 -367 146 -454 -1 -44 -7 -115 -14 -156 -41 -219 -66 -370
-86 -500 -12 -80 -35 -199 -51 -265 -31 -128 -73 -357 -85 -465 -6 -57 -11
-68 -40 -93 -18 -15 -54 -60 -80 -100 -27 -39 -55 -77 -64 -84 -8 -7 -40 -13
-71 -13 -85 0 -94 15 -93 149 1 58 8 142 17 186 9 44 30 192 47 328 17 137 37
290 45 340 8 51 19 162 25 247 14 193 3 328 -46 568 -42 204 -52 313 -43 451
l7 101 59 94 c37 60 63 92 71 88 8 -3 11 -13 8 -26z m-1656 -2 c57 -9 131 -24
165 -34 123 -38 144 -40 285 -29 l135 12 170 -41 c94 -23 200 -47 238 -53 60
-11 67 -15 67 -36 0 -13 -3 -23 -7 -23 -32 0 -331 44 -381 55 -85 20 -155 19
-260 -4 -48 -11 -141 -25 -206 -31 -137 -12 -176 -27 -258 -93 -31 -26 -59
-47 -62 -47 -3 0 -3 19 0 43 5 33 1 53 -15 84 -29 57 -43 128 -35 179 6 40 8
43 33 39 14 -2 73 -12 131 -21z m1255 -154 c90 -48 130 -64 158 -63 42 1 43
-3 31 -104 -6 -48 -8 -51 -29 -43 -13 5 -73 16 -134 26 -61 9 -118 22 -127 28
-8 6 -19 29 -24 51 -12 49 -13 178 -2 173 4 -1 62 -32 127 -68z m-592 -55 c53
-12 354 -55 388 -55 5 0 16 -15 24 -32 22 -54 55 -78 126 -89 35 -6 105 -19
155 -30 l91 -20 7 -56 c4 -31 22 -133 41 -227 30 -152 55 -339 55 -419 0 -33
3 -33 -163 10 -127 34 -136 40 -119 87 18 50 8 76 -30 76 -16 0 -121 -19 -231
-41 l-202 -41 -200 6 c-288 10 -392 24 -446 61 -91 62 -177 158 -219 246 -38
81 -90 242 -90 280 0 19 159 153 217 182 17 10 81 21 145 27 62 6 151 19 198
29 107 24 171 25 253 6z m-59 -891 c124 -4 222 -2 256 4 30 6 57 9 58 7 6 -6
-19 -116 -55 -240 -19 -66 -50 -209 -68 -318 -40 -228 -73 -337 -124 -409 -55
-78 -80 -93 -154 -90 -85 4 -163 23 -312 78 l-127 47 5 48 c3 26 16 67 28 91
25 50 89 138 101 138 4 0 8 -42 8 -93 0 -109 10 -151 47 -189 31 -32 48 -35
62 -11 7 13 2 26 -17 51 -24 32 -27 46 -33 161 -12 214 -10 430 6 566 22 189
17 179 72 171 25 -3 137 -9 247 -12z m791 -293 c70 -16 128 -31 130 -33 2 -2
-5 -55 -15 -118 -10 -63 -23 -167 -30 -230 -7 -63 -16 -119 -20 -124 -5 -4
-23 -4 -42 2 -18 6 -45 13 -60 16 -21 5 -28 12 -28 31 0 13 -13 102 -29 197
-34 204 -45 288 -38 288 3 0 63 -13 132 -29z m-1913 -225 c74 -11 76 -12 62
-31 -8 -11 -20 -36 -26 -57 -10 -33 -13 -36 -35 -27 -13 5 -60 9 -103 9 -73 0
-80 -2 -99 -26 -14 -18 -21 -41 -21 -70 0 -57 28 -84 163 -154 l105 -55 4
-120 c2 -66 2 -125 0 -132 -8 -25 -89 -46 -162 -41 -79 6 -114 24 -137 72 -15
32 -14 36 13 97 39 87 37 137 -9 221 -37 67 -57 141 -57 212 0 51 24 77 96
106 34 14 61 18 89 14 22 -3 75 -11 117 -18z m568 -21 c0 -3 -18 -28 -39 -55
-41 -52 -76 -133 -87 -200 -4 -22 -11 -40 -16 -40 -5 0 -58 23 -119 52 -105
49 -110 53 -104 77 10 41 33 84 66 124 l30 36 107 4 c59 1 119 4 135 5 15 1
27 0 27 -3z m-523 -182 c139 -75 471 -230 598 -281 367 -146 585 -145 752 3
40 36 46 46 37 61 -17 29 -26 26 -79 -17 -45 -37 -125 -83 -132 -75 -2 2 12
29 32 61 19 32 40 73 46 93 l11 35 97 -5 c113 -6 158 -23 196 -72 37 -49 29
-72 -53 -155 -77 -78 -166 -126 -297 -161 -117 -30 -178 -34 -290 -16 -169 26
-246 53 -439 153 -100 51 -212 108 -251 125 -98 44 -374 187 -407 210 -20 14
-28 28 -28 49 l0 29 69 0 c61 0 78 -5 138 -37z m1896 -700 c25 -48 57 -63 135
-63 85 0 122 22 165 95 16 28 47 69 69 92 l41 42 49 -54 c27 -30 77 -69 111
-89 34 -19 89 -56 122 -81 83 -65 148 -96 214 -102 64 -7 81 -16 81 -48 0 -27
-20 -45 -88 -79 -124 -63 -269 -70 -482 -26 -97 20 -300 53 -400 65 -87 10
-85 4 -66 151 9 71 17 161 17 199 l2 70 7 -71 c4 -39 15 -84 23 -101z"/>
</g>
</svg>
